<svg id="visual" viewBox="0 0 900 600" width="900" height="600" xmlns="http://www.w3.org/2000/svg" xmlns:xlink="http://www.w3.org/1999/xlink" version="1.1"><rect width="900" height="600" fill="#0f0f0f"></rect><g><g transform="translate(646 439)"><path d="M0 -54.2L47 -27.1L47 27.1L0 54.2L-47 27.1L-47 -27.1Z" fill="none" stroke="#dc143c" stroke-width="4"></path></g><g transform="translate(511 471)"><path d="M0 -39L33.8 -19.5L33.8 19.5L0 39L-33.8 19.5L-33.8 -19.5Z" fill="none" stroke="#dc143c" stroke-width="4"></path></g><g transform="translate(205 145)"><path d="M0 -42L36.4 -21L36.4 21L0 42L-36.4 21L-36.4 -21Z" stroke="#dc143c" fill="none" stroke-width="4"></path></g><g transform="translate(120 353)"><path d="M0 -49L42.4 -24.5L42.4 24.5L0 49L-42.4 24.5L-42.4 -24.5Z" stroke="#dc143c" fill="none" stroke-width="4"></path></g><g transform="translate(313 381)"><path d="M0 -33L28.6 -16.5L28.6 16.5L0 33L-28.6 16.5L-28.6 -16.5Z" stroke="#dc143c" fill="none" stroke-width="4"></path></g></g></svg>