<svg id="visual" viewBox="0 0 900 600" width="900" height="600" xmlns="http://www.w3.org/2000/svg" xmlns:xlink="http://www.w3.org/1999/xlink" version="1.1"><rect width="900" height="600" fill="#0f0f0f"></rect><g><g transform="translate(296 542)"><path d="M0 -54.2L47 -27.1L47 27.1L0 54.2L-47 27.1L-47 -27.1Z" fill="none" stroke="#dc143c" stroke-width="4"></path></g><g transform="translate(662 97)"><path d="M0 -28L24.2 -14L24.2 14L0 28L-24.2 14L-24.2 -14Z" fill="none" stroke="#dc143c" stroke-width="4"></path></g><g transform="translate(215 326)"><path d="M0 -30L26 -15L26 15L0 30L-26 15L-26 -15Z" stroke="#dc143c" fill="none" stroke-width="4"></path></g><g transform="translate(473 499)"><path d="M0 -45L39 -22.5L39 22.5L0 45L-39 22.5L-39 -22.5Z" stroke="#dc143c" fill="none" stroke-width="4"></path></g><g transform="translate(94 249)"><path d="M0 -46L39.8 -23L39.8 23L0 46L-39.8 23L-39.8 -23Z" stroke="#dc143c" fill="none" stroke-width="4"></path></g></g></svg>