<svg id="visual" viewBox="0 0 900 600" width="900" height="600" xmlns="http://www.w3.org/2000/svg" xmlns:xlink="http://www.w3.org/1999/xlink" version="1.1"><rect width="900" height="600" fill="#0f0f0f"></rect><g><g transform="translate(541 470)"><path d="M0 -54.2L47 -27.1L47 27.1L0 54.2L-47 27.1L-47 -27.1Z" fill="none" stroke="#dc143c" stroke-width="4"></path></g><g transform="translate(183 102)"><path d="M0 -39L33.8 -19.5L33.8 19.5L0 39L-33.8 19.5L-33.8 -19.5Z" fill="none" stroke="#dc143c" stroke-width="4"></path></g><g transform="translate(102 493)"><path d="M0 -49L42.4 -24.5L42.4 24.5L0 49L-42.4 24.5L-42.4 -24.5Z" stroke="#dc143c" fill="none" stroke-width="4"></path></g><g transform="translate(198 544)"><path d="M0 -41L35.5 -20.5L35.5 20.5L0 41L-35.5 20.5L-35.5 -20.5Z" stroke="#dc143c" fill="none" stroke-width="4"></path></g><g transform="translate(346 76)"><path d="M0 -29L25.1 -14.5L25.1 14.5L0 29L-25.1 14.5L-25.1 -14.5Z" stroke="#dc143c" fill="none" stroke-width="4"></path></g></g></svg>