<svg id="visual" viewBox="0 0 900 600" width="900" height="600" xmlns="http://www.w3.org/2000/svg" xmlns:xlink="http://www.w3.org/1999/xlink" version="1.1"><rect width="900" height="600" fill="#0f0f0f"></rect><g><g transform="translate(71 389)"><path d="M0 -54.2L47 -27.1L47 27.1L0 54.2L-47 27.1L-47 -27.1Z" fill="none" stroke="#dc143c" stroke-width="4"></path></g><g transform="translate(345 83)"><path d="M0 -49L42.4 -24.5L42.4 24.5L0 49L-42.4 24.5L-42.4 -24.5Z" fill="none" stroke="#dc143c" stroke-width="4"></path></g><g transform="translate(628 407)"><path d="M0 -36L31.2 -18L31.2 18L0 36L-31.2 18L-31.2 -18Z" stroke="#dc143c" fill="none" stroke-width="4"></path></g><g transform="translate(515 317)"><path d="M0 -51L44.2 -25.5L44.2 25.5L0 51L-44.2 25.5L-44.2 -25.5Z" stroke="#dc143c" fill="none" stroke-width="4"></path></g><g transform="translate(797 227)"><path d="M0 -41L35.5 -20.5L35.5 20.5L0 41L-35.5 20.5L-35.5 -20.5Z" stroke="#dc143c" fill="none" stroke-width="4"></path></g></g></svg>